<?xml version="1.0" encoding="UTF-8" standalone="no"?>
<svg width="100%" height="100%" viewBox="0 0 63 61" version="1.1" xmlns="http://www.w3.org/2000/svg" xml:space="preserve" style="fill-rule:evenodd;clip-rule:evenodd;">
  <title>Mojo Viability — M-glyph</title>
  <g>
    <path d="M61.746,10.156c0,-5.349 -4.402,-9.751 -9.751,-9.751l-41.839,0c-5.349,-0 -9.751,4.402 -9.751,9.751l0,40.681c0,5.349 4.402,9.751 9.751,9.751l41.839,0c5.349,0 9.751,-4.402 9.751,-9.751l-0,-40.681" style="fill:#34d399;fill-rule:nonzero;stroke:#1a6d4e;stroke-width:0.2px;"></path>
    <path d="M12.522,31.218c-0.026,0 -0.048,0.022 -0.048,0.048l0,12.614c-0,0.024 -0.02,0.044 -0.044,0.044l-8.804,0c-0.033,0 -0.06,-0.027 -0.06,-0.06l0,-26.773c0,-0.013 0.011,-0.024 0.024,-0.024l9.745,0c0.05,0 0.097,0.021 0.131,0.058c2.551,2.825 5.481,6.052 8.791,9.682c3.797,4.164 6.362,6.974 7.696,8.429c0.242,0.265 0.359,0.478 0.768,0.459c0.049,-0.002 0.354,-0.003 0.915,-0.003c0.098,0.001 0.193,-0.041 0.259,-0.114l16.815,-18.452c0.003,-0.003 0.006,-0.007 0.009,-0.01c0.031,-0.033 0.149,-0.05 0.354,-0.05c3.154,-0.001 6.308,-0 9.463,0.001c0.027,0 0.049,0.022 0.049,0.049l0,26.75c0,0.032 -0.027,0.058 -0.059,0.058l-8.884,0c-0.02,0 -0.036,-0.016 -0.036,-0.036l0,-12.595c0,-0.036 -0.029,-0.066 -0.065,-0.068c-0.322,-0.018 -0.726,0.001 -1.14,-0.012c-0.154,-0.005 -0.277,0.039 -0.37,0.131c-0.209,0.209 -1.084,1.12 -2.627,2.735c-2.099,2.199 -5.202,5.456 -9.308,9.77c-0.047,0.049 -0.112,0.077 -0.18,0.077c-3.268,-0.002 -6.45,-0.002 -9.547,0.001c-0.136,0 -0.252,-0.017 -0.349,-0.052c-0.012,-0.004 -0.022,-0.01 -0.03,-0.019c-6.15,-6.491 -10.071,-10.629 -11.766,-12.412c-0.161,-0.17 -0.285,-0.23 -0.522,-0.23c-0.357,-0.001 -0.751,0 -1.18,0.003Z" style="fill:#080808;fill-rule:nonzero;"></path>
  </g>
</svg>